<?xml version="1.0" encoding="UTF-8" standalone="no"?>
<!-- Created with Inkscape (http://www.inkscape.org/) -->

<svg
   version="1.1"
   id="svg9"
   xml:space="preserve"
   width="264.56656"
   height="84.785454"
   viewBox="0 0 264.56656 84.785454"
   sodipodi:docname="logo_generadoras.svg"
   inkscape:version="1.1 (c68e22c387, 2021-05-23)"
   xmlns:inkscape="http://www.inkscape.org/namespaces/inkscape"
   xmlns:sodipodi="http://sodipodi.sourceforge.net/DTD/sodipodi-0.dtd"
   xmlns="http://www.w3.org/2000/svg"
   xmlns:svg="http://www.w3.org/2000/svg"><defs
     id="defs13"><clipPath
       clipPathUnits="userSpaceOnUse"
       id="clipPath23"><path
         d="M 0,283.465 H 283.465 V 0 H 0 Z"
         id="path21" /></clipPath><linearGradient
       x1="0"
       y1="0"
       x2="1"
       y2="0"
       gradientUnits="userSpaceOnUse"
       gradientTransform="matrix(59.587009,0,0,-59.587009,42.519684,147.57384)"
       spreadMethod="pad"
       id="linearGradient113"><stop
         style="stop-opacity:1;stop-color:#2cccd3"
         offset="0"
         id="stop105" /><stop
         style="stop-opacity:1;stop-color:#2cccd3"
         offset="0.0974788"
         id="stop107" /><stop
         style="stop-opacity:1;stop-color:#2cccd3"
         offset="0.62786314"
         id="stop109" /><stop
         style="stop-opacity:1;stop-color:#6eceb2"
         offset="1"
         id="stop111" /></linearGradient><linearGradient
       x1="0"
       y1="0"
       x2="1"
       y2="0"
       gradientUnits="userSpaceOnUse"
       gradientTransform="matrix(37.363785,14.748862,14.748862,-37.363785,65.427666,124.34495)"
       spreadMethod="pad"
       id="linearGradient135"><stop
         style="stop-opacity:1;stop-color:#ff3a29"
         offset="0"
         id="stop129" /><stop
         style="stop-opacity:1;stop-color:#fd4338"
         offset="0.299004"
         id="stop131" /><stop
         style="stop-opacity:1;stop-color:#ffc72c"
         offset="1"
         id="stop133" /></linearGradient><linearGradient
       x1="0"
       y1="0"
       x2="1"
       y2="0"
       gradientUnits="userSpaceOnUse"
       gradientTransform="matrix(41.952316,-19.337397,-19.337397,-41.952316,68.088745,144.05533)"
       spreadMethod="pad"
       id="linearGradient165"><stop
         style="stop-opacity:1;stop-color:#fd4338"
         offset="0"
         id="stop151" /><stop
         style="stop-opacity:1;stop-color:#fd4338"
         offset="0.02158421"
         id="stop153" /><stop
         style="stop-opacity:1;stop-color:#fd4338"
         offset="0.190766"
         id="stop155" /><stop
         style="stop-opacity:1;stop-color:#fd4338"
         offset="0.24068081"
         id="stop157" /><stop
         style="stop-opacity:1;stop-color:#ffc72c"
         offset="0.631924"
         id="stop159" /><stop
         style="stop-opacity:1;stop-color:#ffc72c"
         offset="0.88027"
         id="stop161" /><stop
         style="stop-opacity:1;stop-color:#ffc72c"
         offset="1"
         id="stop163" /></linearGradient><linearGradient
       x1="0"
       y1="0"
       x2="1"
       y2="0"
       gradientUnits="userSpaceOnUse"
       gradientTransform="matrix(19.263897,-41.314571,41.314571,19.263897,56.847996,153.68626)"
       spreadMethod="pad"
       id="linearGradient185"><stop
         style="stop-opacity:1;stop-color:#2cccd3"
         offset="0"
         id="stop181" /><stop
         style="stop-opacity:1;stop-color:#ffc72c"
         offset="1"
         id="stop183" /></linearGradient></defs><sodipodi:namedview
     id="namedview11"
     pagecolor="#ffffff"
     bordercolor="#666666"
     borderopacity="1.0"
     inkscape:pageshadow="2"
     inkscape:pageopacity="0.0"
     inkscape:pagecheckerboard="0"
     showgrid="false"
     inkscape:zoom="1.4208103"
     inkscape:cx="131.96695"
     inkscape:cy="42.581335"
     inkscape:window-width="1366"
     inkscape:window-height="745"
     inkscape:window-x="-8"
     inkscape:window-y="296"
     inkscape:window-maximized="1"
     inkscape:current-layer="g15" /><g
     id="g15"
     inkscape:groupmode="layer"
     inkscape:label="2"
     transform="matrix(1.3333333,0,0,-1.3333333,-56.693423,231.36933)"><g
       id="g17"><g
         id="g19"
         clip-path="url(#clipPath23)"><g
           id="g25"
           transform="translate(116.3608,146.2414)"><path
             d="m 0,0 c -1.136,0.637 -2.025,1.523 -2.668,2.659 -0.644,1.135 -0.965,2.412 -0.965,3.829 0,1.419 0.321,2.691 0.965,3.821 0.643,1.129 1.532,2.012 2.668,2.649 1.136,0.636 2.419,0.955 3.85,0.955 0.958,0 1.874,-0.174 2.747,-0.522 0.873,-0.348 1.625,-0.827 2.255,-1.437 0.63,-0.611 1.069,-1.297 1.319,-2.059 L 8.537,9.344 C 8.235,10.21 7.647,10.926 6.774,11.491 5.901,12.055 4.926,12.337 3.85,12.337 2.747,12.337 1.766,12.087 0.906,11.589 0.046,11.09 -0.626,10.398 -1.113,9.511 -1.599,8.625 -1.841,7.618 -1.841,6.488 c 0,-1.115 0.242,-2.12 0.728,-3.012 C -0.626,2.583 0.049,1.883 0.916,1.378 1.782,0.873 2.76,0.62 3.85,0.62 c 0.985,0 1.887,0.216 2.708,0.65 0.819,0.434 1.473,1.027 1.959,1.782 0.485,0.755 0.741,1.592 0.769,2.511 l -6.893,0.02 v 1.595 h 8.704 C 11.11,7.033 11.117,6.824 11.117,6.547 11.117,5.103 10.812,3.811 10.2,2.668 9.59,1.526 8.733,0.637 7.631,0 6.528,-0.637 5.268,-0.955 3.85,-0.955 2.419,-0.955 1.136,-0.637 0,0"
             style="fill:#76777b;fill-opacity:1;fill-rule:nonzero;stroke:none"
             id="path27" /></g><g
           id="g29"
           transform="translate(138.1698,151.6467)"><path
             d="M 0,0 C -0.144,0.906 -0.541,1.631 -1.191,2.177 -1.841,2.721 -2.639,2.993 -3.584,2.993 -4.503,2.993 -5.28,2.718 -5.917,2.167 -6.554,1.615 -6.945,0.893 -7.089,0 Z m -6.183,-5.553 c -0.815,0.472 -1.451,1.126 -1.91,1.96 -0.46,0.833 -0.689,1.775 -0.689,2.825 0,0.997 0.225,1.894 0.679,2.688 0.453,0.794 1.08,1.418 1.88,1.872 0.801,0.452 1.706,0.679 2.718,0.679 0.998,0 1.894,-0.227 2.688,-0.679 C -0.022,3.338 0.598,2.714 1.044,1.92 1.49,1.126 1.713,0.223 1.713,-0.788 c 0,-0.288 -0.006,-0.505 -0.019,-0.649 h -8.802 c 0.118,-1.011 0.515,-1.822 1.191,-2.433 0.676,-0.61 1.519,-0.915 2.53,-0.915 0.735,0 1.408,0.174 2.019,0.522 0.61,0.347 1.073,0.817 1.388,1.408 l 1.359,-0.689 c -0.407,-0.853 -1.034,-1.52 -1.88,-1.999 -0.848,-0.479 -1.823,-0.719 -2.925,-0.719 -1.025,0 -1.944,0.237 -2.757,0.709"
             style="fill:#76777b;fill-opacity:1;fill-rule:nonzero;stroke:none"
             id="path31" /></g><g
           id="g33"
           transform="translate(142.3051,155.7229)"><path
             d="m 0,0 h 1.635 v -1.358 h 0.197 c 0.354,0.551 0.801,0.978 1.339,1.28 0.538,0.302 1.135,0.453 1.791,0.453 0.828,0 1.553,-0.188 2.177,-0.562 0.623,-0.374 1.106,-0.893 1.447,-1.555 0.341,-0.664 0.512,-1.415 0.512,-2.255 V -9.944 H 7.464 v 5.947 c 0,0.853 -0.243,1.549 -0.729,2.087 C 6.25,-1.372 5.586,-1.102 4.746,-1.102 4.194,-1.102 3.679,-1.234 3.2,-1.497 2.721,-1.759 2.34,-2.124 2.059,-2.589 1.775,-3.056 1.635,-3.571 1.635,-4.135 V -9.944 H 0 Z"
             style="fill:#76777b;fill-opacity:1;fill-rule:nonzero;stroke:none"
             id="path35" /></g><g
           id="g37"
           transform="translate(162.391,151.6467)"><path
             d="M 0,0 C -0.144,0.906 -0.541,1.631 -1.191,2.177 -1.84,2.721 -2.639,2.993 -3.583,2.993 -4.502,2.993 -5.28,2.718 -5.917,2.167 -6.554,1.615 -6.945,0.893 -7.089,0 Z m -6.183,-5.553 c -0.814,0.472 -1.451,1.126 -1.91,1.96 -0.46,0.833 -0.689,1.775 -0.689,2.825 0,0.997 0.226,1.894 0.679,2.688 0.454,0.794 1.08,1.418 1.881,1.872 0.801,0.452 1.706,0.679 2.717,0.679 0.998,0 1.894,-0.227 2.688,-0.679 0.795,-0.454 1.415,-1.078 1.861,-1.872 0.447,-0.794 0.67,-1.697 0.67,-2.708 0,-0.288 -0.007,-0.505 -0.02,-0.649 h -8.802 c 0.118,-1.011 0.515,-1.822 1.191,-2.433 0.676,-0.61 1.52,-0.915 2.53,-0.915 0.735,0 1.408,0.174 2.019,0.522 0.61,0.347 1.073,0.817 1.388,1.408 l 1.359,-0.689 c -0.407,-0.853 -1.034,-1.52 -1.88,-1.999 -0.848,-0.479 -1.822,-0.719 -2.925,-0.719 -1.024,0 -1.943,0.237 -2.757,0.709"
             style="fill:#76777b;fill-opacity:1;fill-rule:nonzero;stroke:none"
             id="path39" /></g><g
           id="g41"
           transform="translate(166.5273,155.7229)"><path
             d="m 0,0 h 1.595 v -1.338 h 0.177 c 0.223,0.445 0.584,0.814 1.083,1.102 0.499,0.289 1.024,0.433 1.576,0.433 0.498,0 0.905,-0.085 1.22,-0.256 V -1.575 C 5.192,-1.378 4.699,-1.279 4.174,-1.279 3.426,-1.279 2.816,-1.585 2.343,-2.196 1.871,-2.806 1.635,-3.604 1.635,-4.588 V -9.944 H 0 Z"
             style="fill:#76777b;fill-opacity:1;fill-rule:nonzero;stroke:none"
             id="path43" /></g><g
           id="g45"
           transform="translate(180.5087,147.364)"><path
             d="m 0,0 c 0.564,0.335 1.004,0.797 1.319,1.388 0.315,0.591 0.473,1.26 0.473,2.009 0,0.735 -0.158,1.398 -0.473,1.989 C 1.004,5.977 0.564,6.439 0,6.774 -0.564,7.109 -1.194,7.276 -1.891,7.276 -2.6,7.276 -3.236,7.109 -3.801,6.774 -4.365,6.439 -4.805,5.977 -5.12,5.386 -5.435,4.795 -5.593,4.132 -5.593,3.397 -5.593,2.661 -5.435,1.995 -5.12,1.398 -4.805,0.801 -4.365,0.335 -3.801,0 c 0.565,-0.334 1.201,-0.502 1.91,-0.502 0.697,0 1.327,0.168 1.891,0.502 m -4.735,-1.29 c -0.782,0.459 -1.392,1.1 -1.832,1.92 -0.44,0.82 -0.66,1.743 -0.66,2.767 0,1.024 0.22,1.943 0.66,2.757 0.44,0.814 1.046,1.45 1.821,1.91 0.774,0.459 1.655,0.689 2.639,0.689 1.536,0 2.783,-0.67 3.741,-2.009 H 1.811 V 8.359 H 3.446 V -1.585 H 1.811 V 0.049 H 1.634 c -0.932,-1.352 -2.178,-2.028 -3.741,-2.028 -0.972,0 -1.848,0.229 -2.628,0.689"
             style="fill:#76777b;fill-opacity:1;fill-rule:nonzero;stroke:none"
             id="path47" /></g><g
           id="g49"
           transform="translate(193.5947,147.3733)"><path
             d="M 0,0 C 0.558,0.341 0.998,0.811 1.319,1.408 1.64,2.006 1.802,2.666 1.802,3.388 1.802,4.109 1.645,4.766 1.329,5.356 1.014,5.947 0.574,6.414 0.01,6.755 -0.555,7.096 -1.185,7.267 -1.88,7.267 -2.59,7.267 -3.223,7.096 -3.781,6.755 -4.339,6.414 -4.779,5.947 -5.1,5.356 -5.422,4.766 -5.583,4.109 -5.583,3.388 c 0,-0.736 0.161,-1.399 0.483,-1.99 0.321,-0.59 0.764,-1.057 1.329,-1.398 0.563,-0.341 1.194,-0.512 1.891,-0.512 0.695,0 1.322,0.171 1.88,0.512 m -4.677,-1.29 c -0.788,0.467 -1.408,1.107 -1.862,1.92 -0.452,0.814 -0.678,1.733 -0.678,2.758 0,1.024 0.222,1.943 0.669,2.757 0.446,0.813 1.063,1.45 1.852,1.91 0.787,0.459 1.66,0.689 2.618,0.689 0.801,0 1.516,-0.161 2.147,-0.483 C 0.699,7.94 1.198,7.477 1.565,6.873 h 0.198 v 6.006 H 3.397 V -1.595 H 1.763 v 1.536 H 1.565 C 1.198,-0.676 0.702,-1.152 0.079,-1.486 c -0.624,-0.335 -1.336,-0.502 -2.137,-0.502 -0.958,0 -1.831,0.233 -2.619,0.698"
             style="fill:#76777b;fill-opacity:1;fill-rule:nonzero;stroke:none"
             id="path51" /></g><g
           id="g53"
           transform="translate(206.621,147.364)"><path
             d="m 0,0 c 0.564,0.335 1.004,0.797 1.319,1.388 0.315,0.591 0.472,1.26 0.472,2.009 0,0.735 -0.157,1.398 -0.472,1.989 C 1.004,5.977 0.564,6.439 0,6.774 -0.564,7.109 -1.202,7.276 -1.911,7.276 -2.62,7.276 -3.257,7.109 -3.821,6.774 -4.385,6.439 -4.825,5.977 -5.14,5.386 -5.455,4.795 -5.613,4.132 -5.613,3.397 -5.613,2.648 -5.455,1.979 -5.14,1.388 -4.825,0.797 -4.385,0.335 -3.821,0 c 0.564,-0.334 1.201,-0.502 1.91,-0.502 0.709,0 1.347,0.168 1.911,0.502 m -4.677,-1.29 c -0.808,0.459 -1.438,1.096 -1.89,1.91 -0.454,0.814 -0.68,1.74 -0.68,2.777 0,1.037 0.226,1.959 0.68,2.766 0.452,0.808 1.082,1.441 1.89,1.901 0.807,0.459 1.729,0.689 2.766,0.689 1.024,0 1.943,-0.23 2.757,-0.689 C 1.661,7.604 2.294,6.968 2.747,6.154 3.199,5.34 3.426,4.421 3.426,3.397 3.426,2.36 3.199,1.434 2.747,0.62 2.294,-0.194 1.661,-0.831 0.846,-1.29 0.032,-1.75 -0.887,-1.979 -1.911,-1.979 c -1.037,0 -1.959,0.229 -2.766,0.689"
             style="fill:#76777b;fill-opacity:1;fill-rule:nonzero;stroke:none"
             id="path55" /></g><g
           id="g57"
           transform="translate(212.4496,155.7229)"><path
             d="m 0,0 h 1.595 v -1.338 h 0.177 c 0.224,0.445 0.584,0.814 1.083,1.102 0.499,0.289 1.024,0.433 1.576,0.433 0.499,0 0.905,-0.085 1.221,-0.256 V -1.575 C 5.192,-1.378 4.7,-1.279 4.174,-1.279 3.426,-1.279 2.816,-1.585 2.343,-2.196 1.871,-2.806 1.634,-3.604 1.634,-4.588 V -9.944 H 0 Z"
             style="fill:#76777b;fill-opacity:1;fill-rule:nonzero;stroke:none"
             id="path59" /></g><g
           id="g61"
           transform="translate(226.4316,147.364)"><path
             d="m 0,0 c 0.564,0.335 1.004,0.797 1.319,1.388 0.316,0.591 0.473,1.26 0.473,2.009 0,0.735 -0.157,1.398 -0.473,1.989 C 1.004,5.977 0.564,6.439 0,6.774 -0.564,7.109 -1.195,7.276 -1.89,7.276 -2.6,7.276 -3.236,7.109 -3.801,6.774 -4.365,6.439 -4.805,5.977 -5.12,5.386 -5.436,4.795 -5.593,4.132 -5.593,3.397 -5.593,2.661 -5.436,1.995 -5.12,1.398 -4.805,0.801 -4.365,0.335 -3.801,0 -3.236,-0.334 -2.6,-0.502 -1.89,-0.502 -1.195,-0.502 -0.564,-0.334 0,0 m -4.736,-1.29 c -0.781,0.459 -1.392,1.1 -1.831,1.92 -0.44,0.82 -0.66,1.743 -0.66,2.767 0,1.024 0.22,1.943 0.66,2.757 0.439,0.814 1.046,1.45 1.821,1.91 0.775,0.459 1.654,0.689 2.639,0.689 1.536,0 2.783,-0.67 3.742,-2.009 H 1.812 V 8.359 H 3.447 V -1.585 H 1.812 V 0.049 H 1.635 c -0.933,-1.352 -2.18,-2.028 -3.742,-2.028 -0.972,0 -1.848,0.229 -2.629,0.689"
             style="fill:#76777b;fill-opacity:1;fill-rule:nonzero;stroke:none"
             id="path63" /></g><g
           id="g65"
           transform="translate(233.56,146.3786)"><path
             d="M 0,0 C -0.788,0.663 -1.182,1.586 -1.182,2.768 H 0.394 C 0.407,2.045 0.68,1.468 1.211,1.035 1.743,0.601 2.468,0.385 3.387,0.385 4.136,0.385 4.733,0.533 5.18,0.828 5.625,1.123 5.849,1.533 5.849,2.059 5.849,2.465 5.724,2.77 5.475,2.974 5.225,3.177 4.93,3.319 4.589,3.397 4.247,3.476 3.715,3.562 2.993,3.653 1.799,3.798 0.833,4.077 0.099,4.491 c -0.736,0.413 -1.103,1.125 -1.103,2.136 0,0.958 0.364,1.717 1.093,2.274 0.728,0.558 1.696,0.838 2.904,0.838 1.247,0 2.255,-0.306 3.023,-0.916 C 6.784,8.212 7.168,7.395 7.168,6.371 H 5.573 C 5.56,6.975 5.317,7.457 4.844,7.818 4.372,8.18 3.748,8.36 2.974,8.36 2.251,8.36 1.667,8.209 1.221,7.907 0.774,7.604 0.552,7.198 0.552,6.687 0.552,6.305 0.672,6.013 0.916,5.81 1.159,5.606 1.454,5.468 1.802,5.396 2.149,5.324 2.671,5.249 3.368,5.17 4.143,5.078 4.815,4.937 5.386,4.746 5.957,4.556 6.432,4.248 6.814,3.821 7.195,3.394 7.385,2.813 7.385,2.078 7.385,1.107 7.027,0.352 6.312,-0.187 5.596,-0.725 4.601,-0.994 3.328,-0.994 1.896,-0.994 0.788,-0.662 0,0"
             style="fill:#76777b;fill-opacity:1;fill-rule:nonzero;stroke:none"
             id="path67" /></g><g
           id="g69"
           transform="translate(119.9252,125.571)"><path
             d="M 0,0 C 0.558,0.341 0.997,0.811 1.319,1.408 1.641,2.006 1.802,2.665 1.802,3.388 1.802,4.109 1.644,4.766 1.33,5.356 1.014,5.947 0.574,6.413 0.01,6.755 -0.555,7.096 -1.185,7.267 -1.88,7.267 -2.589,7.267 -3.223,7.096 -3.781,6.755 -4.339,6.413 -4.779,5.947 -5.101,5.356 -5.422,4.766 -5.583,4.109 -5.583,3.388 c 0,-0.737 0.161,-1.399 0.482,-1.99 0.322,-0.59 0.766,-1.057 1.33,-1.398 0.564,-0.342 1.194,-0.512 1.891,-0.512 0.695,0 1.322,0.17 1.88,0.512 m -4.677,-1.29 c -0.787,0.467 -1.408,1.106 -1.861,1.921 -0.453,0.813 -0.679,1.732 -0.679,2.757 0,1.023 0.222,1.942 0.669,2.757 0.446,0.813 1.064,1.45 1.851,1.91 0.787,0.459 1.661,0.689 2.619,0.689 0.801,0 1.517,-0.162 2.147,-0.483 0.63,-0.322 1.129,-0.784 1.497,-1.388 h 0.196 v 6.006 H 3.397 V -1.595 H 1.762 V -0.06 H 1.566 C 1.198,-0.676 0.702,-1.151 0.078,-1.486 c -0.623,-0.335 -1.335,-0.502 -2.136,-0.502 -0.959,0 -1.831,0.232 -2.619,0.698"
             style="fill:#76777b;fill-opacity:1;fill-rule:nonzero;stroke:none"
             id="path71" /></g><g
           id="g73"
           transform="translate(134.5077,129.8445)"><path
             d="m 0,0 c -0.145,0.906 -0.542,1.631 -1.192,2.177 -0.65,0.544 -1.447,0.816 -2.392,0.816 -0.919,0 -1.698,-0.275 -2.333,-0.827 C -6.555,1.614 -6.945,0.893 -7.089,0 Z m -6.184,-5.553 c -0.814,0.473 -1.451,1.125 -1.91,1.959 -0.46,0.833 -0.689,1.776 -0.689,2.826 0,0.997 0.226,1.894 0.679,2.688 0.453,0.794 1.08,1.418 1.881,1.871 0.801,0.453 1.706,0.68 2.718,0.68 0.997,0 1.893,-0.227 2.688,-0.68 0.794,-0.453 1.414,-1.077 1.86,-1.871 0.446,-0.794 0.67,-1.697 0.67,-2.708 0,-0.288 -0.007,-0.505 -0.019,-0.649 h -8.803 c 0.118,-1.011 0.515,-1.822 1.192,-2.433 0.675,-0.61 1.519,-0.915 2.53,-0.915 0.735,0 1.408,0.174 2.018,0.521 0.611,0.348 1.074,0.818 1.388,1.409 l 1.359,-0.69 c -0.407,-0.852 -1.034,-1.519 -1.881,-1.998 -0.846,-0.479 -1.821,-0.719 -2.924,-0.719 -1.024,0 -1.943,0.237 -2.757,0.709"
             style="fill:#76777b;fill-opacity:1;fill-rule:nonzero;stroke:none"
             id="path75" /></g><g
           id="g77"
           transform="translate(146.4701,124.4392)"><path
             d="m 0,0 c -1.096,0.637 -1.953,1.517 -2.569,2.639 -0.618,1.122 -0.926,2.392 -0.926,3.81 0,1.418 0.305,2.695 0.915,3.83 0.611,1.136 1.464,2.026 2.56,2.669 1.096,0.643 2.334,0.965 3.712,0.965 1.024,0 1.999,-0.218 2.925,-0.65 C 7.542,12.83 8.326,12.229 8.971,11.461 9.613,10.693 10.046,9.83 10.27,8.871 L 8.517,8.635 C 8.346,9.344 8.025,9.98 7.552,10.545 7.08,11.109 6.505,11.55 5.829,11.864 5.153,12.18 4.441,12.337 3.692,12.337 2.655,12.337 1.726,12.085 0.906,11.579 0.086,11.073 -0.554,10.378 -1.015,9.492 -1.473,8.605 -1.704,7.604 -1.704,6.488 c 0,-1.116 0.233,-2.12 0.7,-3.012 C -0.539,2.582 0.105,1.883 0.926,1.378 1.746,0.873 2.668,0.62 3.692,0.62 c 0.736,0 1.438,0.154 2.107,0.463 0.67,0.309 1.248,0.735 1.733,1.279 0.486,0.545 0.821,1.153 1.005,1.823 L 10.25,3.85 C 10.027,2.931 9.593,2.107 8.95,1.378 8.307,0.649 7.525,0.078 6.606,-0.335 5.687,-0.749 4.716,-0.955 3.692,-0.955 2.327,-0.955 1.096,-0.637 0,0"
             style="fill:#76777b;fill-opacity:1;fill-rule:nonzero;stroke:none"
             id="path79" /></g><g
           id="g81"
           transform="translate(159.1811,138.4499)"><path
             d="m 0,0 h 1.635 v -5.79 h 0.197 c 0.355,0.525 0.8,0.933 1.339,1.222 0.538,0.288 1.135,0.433 1.792,0.433 0.827,0 1.552,-0.187 2.176,-0.561 0.623,-0.374 1.106,-0.893 1.447,-1.556 0.341,-0.663 0.512,-1.415 0.512,-2.255 v -5.967 H 7.464 v 5.967 c 0,0.866 -0.243,1.566 -0.729,2.097 C 6.25,-5.878 5.586,-5.612 4.746,-5.612 4.195,-5.612 3.68,-5.743 3.201,-6.006 2.721,-6.269 2.341,-6.633 2.058,-7.099 1.776,-7.565 1.635,-8.087 1.635,-8.665 v -5.809 H 0 Z"
             style="fill:#76777b;fill-opacity:1;fill-rule:nonzero;stroke:none"
             id="path83" /></g><path
           d="m 171.174,133.921 h 1.635 v -9.944 h -1.635 z m -0.02,2.225 c -0.223,0.223 -0.334,0.505 -0.334,0.847 0,0.328 0.111,0.6 0.334,0.817 0.223,0.216 0.505,0.324 0.847,0.324 0.341,0 0.621,-0.104 0.837,-0.314 0.217,-0.211 0.325,-0.486 0.325,-0.827 0,-0.342 -0.108,-0.624 -0.325,-0.847 -0.216,-0.223 -0.496,-0.335 -0.837,-0.335 -0.342,0 -0.624,0.112 -0.847,0.335"
           style="fill:#76777b;fill-opacity:1;fill-rule:nonzero;stroke:none"
           id="path85" /><path
           d="m 175.9,138.45 h 1.634 V 123.976 H 175.9 Z"
           style="fill:#76777b;fill-opacity:1;fill-rule:nonzero;stroke:none"
           id="path87" /><g
           id="g89"
           transform="translate(188.7197,129.8445)"><path
             d="m 0,0 c -0.144,0.906 -0.541,1.631 -1.191,2.177 -0.65,0.544 -1.448,0.816 -2.392,0.816 -0.919,0 -1.698,-0.275 -2.334,-0.827 C -6.555,1.614 -6.945,0.893 -7.089,0 Z m -6.183,-5.553 c -0.814,0.473 -1.452,1.125 -1.91,1.959 -0.461,0.833 -0.69,1.776 -0.69,2.826 0,0.997 0.227,1.894 0.68,2.688 0.453,0.794 1.08,1.418 1.88,1.871 0.801,0.453 1.706,0.68 2.718,0.68 0.998,0 1.894,-0.227 2.688,-0.68 C -0.023,3.338 0.598,2.714 1.044,1.92 1.49,1.126 1.713,0.223 1.713,-0.788 c 0,-0.288 -0.007,-0.505 -0.019,-0.649 h -8.802 c 0.118,-1.011 0.515,-1.822 1.191,-2.433 0.675,-0.61 1.519,-0.915 2.53,-0.915 0.735,0 1.408,0.174 2.019,0.521 0.61,0.348 1.073,0.818 1.388,1.409 l 1.358,-0.69 c -0.407,-0.852 -1.033,-1.519 -1.88,-1.998 -0.847,-0.479 -1.822,-0.719 -2.924,-0.719 -1.025,0 -1.944,0.237 -2.757,0.709"
             style="fill:#76777b;fill-opacity:1;fill-rule:nonzero;stroke:none"
             id="path91" /></g></g></g><g
       id="g93"><g
         id="g95"><g
           id="g101"><g
             id="g103"><path
               d="M 56.507,168.083 C 40.87,157.469 37.983,135.936 49.676,121.621 v 0 l 5.969,4.876 c -9.052,11.082 -6.57,27.875 5.97,35.714 v 0 c 3.656,2.285 7.897,3.542 12.207,3.605 v 0 c 6.144,0.09 11.867,-2.048 16.306,-5.937 v 0 c 0.02,-0.019 0.035,-0.042 0.056,-0.06 v 0 c 0.029,-0.026 2.98,-2.604 4.662,-5.671 v 0 c 0.703,-1.283 2.028,-2.008 3.395,-2.008 v 0 c 0.629,0 1.267,0.154 1.857,0.477 v 0 c 1.873,1.027 2.559,3.378 1.531,5.251 v 0 c -2.37,4.322 -6.231,7.67 -6.395,7.81 v 0 c -0.041,0.036 -0.089,0.06 -0.132,0.093 v 0 c -5.523,4.801 -12.539,7.556 -20.101,7.746 v 0 c -0.259,0.007 -0.519,0.01 -0.778,0.01 v 0 c -6.297,0 -12.497,-1.903 -17.716,-5.444"
               style="fill:url(#linearGradient113);stroke:none"
               id="path115" /></g></g></g></g><g
       id="g117"><g
         id="g119"><g
           id="g125"><g
             id="g127"><path
               d="m 68.093,119.763 c 3.179,-3.89 7.683,-6.3 12.685,-6.784 v 0 c 4.943,-0.478 9.784,0.989 13.632,4.132 v 0 l -4.876,5.969 c -2.262,-1.847 -5.109,-2.71 -8.014,-2.428 v 0 c -2.94,0.285 -5.589,1.7 -7.457,3.988 v 0 c -3.835,4.695 -3.136,11.636 1.559,15.471 v 0 l -4.876,5.97 c -7.987,-6.524 -9.177,-18.33 -2.653,-26.318"
               style="fill:url(#linearGradient135);stroke:none"
               id="path137" /></g></g></g></g><g
       id="g139"><g
         id="g141"><g
           id="g147"><g
             id="g149"><path
               d="m 70.746,146.081 1.904,-4.127 2.972,-1.843 c 4.697,3.836 11.637,3.136 15.472,-1.56 v 0 c 1.858,-2.274 2.719,-5.136 2.424,-8.058 v 0 c -0.294,-2.922 -1.71,-5.555 -3.984,-7.413 v 0 l 1.394,-3.737 3.482,-2.232 c 3.87,3.16 6.277,7.638 6.777,12.609 v 0 c 0.502,4.97 -0.963,9.839 -4.124,13.708 v 0 c -3.692,4.52 -9.076,6.863 -14.501,6.863 v 0 c -4.162,0 -8.348,-1.378 -11.816,-4.21"
               style="fill:url(#linearGradient165);stroke:none"
               id="path167" /></g></g></g></g><g
       id="g169"><g
         id="g171"><g
           id="g177"><g
             id="g179"><path
               d="m 49.678,121.621 c 5.403,-6.614 13.06,-10.71 21.561,-11.532 v 0 c 8.403,-0.814 16.632,1.68 23.171,7.022 v 0 l 1.863,1.785 -6.739,4.184 C 84.58,119.034 78.346,117.144 71.98,117.76 v 0 c -6.439,0.623 -12.239,3.726 -16.331,8.737 v 0 c -8.401,10.284 -6.869,25.485 3.415,33.885 v 0 l -1.972,3.547 -2.904,2.423 C 40.613,155.263 38.59,135.196 49.678,121.621"
               style="fill:url(#linearGradient185);stroke:none"
               id="path187" /></g></g></g></g></g></svg>
