<?xml version="1.0" encoding="utf-8"?>
<!-- Generator: Adobe Illustrator 25.4.0, SVG Export Plug-In . SVG Version: 6.00 Build 0)  -->
<svg version="1.1" id="Layer_1" xmlns="http://www.w3.org/2000/svg" xmlns:xlink="http://www.w3.org/1999/xlink" x="0px" y="0px"
	 viewBox="0 0 101.2 44.7" style="enable-background:new 0 0 101.2 44.7;" xml:space="preserve">
<style type="text/css">
	.st0{fill:#114055;}
	.st1{fill:#FFFFFF;}
</style>
<g id="Grupo_325" transform="translate(-93.857 -1875.126)">
	<path id="Trazado_493" class="st0" d="M93.9,1884h16.9l2.4-8.9h11.5l-2.4,8.9h7.3v35.7H93.9V1884z"/>
	<path id="Trazado_494" class="st0" d="M179.3,1897.1v3.6h-1.2c-0.6,0-1.1,0.2-1.5,0.7c-0.4,0.6-0.5,1.4-0.5,2.1v0.9h3.3v3.8h-3.3
		v11.5h-4.6v-11.5h-2.9v-3.8h2.9v-1.4c-0.1-1.6,0.4-3.2,1.3-4.4c1-1.1,2.5-1.6,4-1.5L179.3,1897.1z M166.4,1910.8v8.9h-4.6v-7.8
		c0.1-0.9-0.1-1.9-0.6-2.7c-0.4-0.6-1-0.9-1.7-0.9c-0.8,0-1.5,0.4-1.9,1.1c-0.5,0.9-0.8,1.9-0.7,3v7.3h-4.7v-11.8h-1.9v-3.5h6.1v2.3
		c1.1-1.7,2.9-2.7,4.9-2.7c1.5-0.1,2.9,0.6,3.8,1.7C166,1907.2,166.5,1909,166.4,1910.8 M147.6,1904.4v15.3h-4.7v-11.8h-2.2v-3.5
		H147.6z M142.9,1897.4h4.7v4.3h-4.7V1897.4z M188.4,1912.7c-1.1-0.1-2.1,0.1-3.1,0.5c-0.6,0.3-0.9,0.9-0.9,1.6
		c0,0.5,0.2,0.9,0.5,1.3c0.3,0.3,0.8,0.5,1.3,0.5c0.9,0,1.7-0.3,2.2-1c0.6-0.7,0.8-1.6,0.8-2.5v-0.4L188.4,1912.7z M195.1,1919.7
		h-1.4l0,0h-4.1l-0.1-2.2c-1.1,1.8-2.9,2.3-5,2.3c-1.2,0.1-2.4-0.4-3.3-1.3c-0.9-1-1.3-2.2-1.2-3.5c-0.1-1.5,0.6-2.9,1.8-3.8
		c1.7-0.9,3.7-1.4,5.7-1.2h1.8v-0.2c0-0.7-0.3-1.5-0.9-1.9c-0.8-0.5-1.7-0.7-2.6-0.7c-1.4,0.1-2.8,0.5-4,1.2l-0.1-3.7
		c1.8-0.7,3.6-1.1,5.6-1.1c1.8-0.2,3.6,0.5,4.9,1.9c1,1.2,1.6,3.2,1.6,5.9v4.7h1.4"/>
	<path id="Trazado_495" class="st1" d="M113.5,1915.3h-10.7l7.1-26.8h10.7L113.5,1915.3z"/>
</g>
</svg>
