<svg id="Capa_1" data-name="Capa 1" xmlns="http://www.w3.org/2000/svg" viewBox="0 0 234.16 55.65"><defs><style>.cls-1{fill:#1d1d1b;}.cls-2{fill:#c80021;}.cls-3{fill:#5cb5e4;}.cls-4{fill:#dc5636;}.cls-5{fill:#f1a510;}.cls-6{fill:#1f2222;}</style></defs><path class="cls-1" d="M75.65,28.64l4-.69v1.73a2.32,2.32,0,0,0,.69,1.87,2.41,2.41,0,0,0,1.62.59,2.06,2.06,0,0,0,1.64-.68,2.55,2.55,0,0,0,.6-1.75V16.82h4.25v13A6.5,6.5,0,0,1,88,32.26a5.91,5.91,0,0,1-1.34,2,6.48,6.48,0,0,1-2,1.37,6.71,6.71,0,0,1-2.61.5,7.2,7.2,0,0,1-2.6-.44,5.47,5.47,0,0,1-2-1.27,5.86,5.86,0,0,1-1.31-2,6.78,6.78,0,0,1-.47-2.56Z" transform="translate(-3.68 -3.68)"/><path class="cls-1" d="M91.74,26.3a10.05,10.05,0,0,1,.79-4.07,9.32,9.32,0,0,1,5.31-5.12,10.61,10.61,0,0,1,3.82-.69,10.47,10.47,0,0,1,3.81.69,9.75,9.75,0,0,1,3.15,2,9.64,9.64,0,0,1,2.15,3.13,10.05,10.05,0,0,1,.79,4.07,10,10,0,0,1-.79,4.05,9.39,9.39,0,0,1-5.3,5.1,10.47,10.47,0,0,1-3.81.69,10.61,10.61,0,0,1-3.82-.69,9.37,9.37,0,0,1-5.31-5.1,10,10,0,0,1-.79-4.05m4.41,0a6.22,6.22,0,0,0,.48,2.56,5.31,5.31,0,0,0,1.28,1.78,5.24,5.24,0,0,0,1.78,1,6.08,6.08,0,0,0,4,0,5.16,5.16,0,0,0,1.76-1,5.58,5.58,0,0,0,1.27-1.78,6.22,6.22,0,0,0,.48-2.56,6.32,6.32,0,0,0-.48-2.56,5.21,5.21,0,0,0-1.27-1.79,5.32,5.32,0,0,0-1.76-1,5.75,5.75,0,0,0-4,0,5.41,5.41,0,0,0-1.78,1,5,5,0,0,0-1.28,1.79,6.32,6.32,0,0,0-.48,2.56" transform="translate(-3.68 -3.68)"/><path class="cls-1" d="M124.65,22.53a2.87,2.87,0,0,0-.23-.73,2.3,2.3,0,0,0-.53-.78,3.23,3.23,0,0,0-1-.61,3.66,3.66,0,0,0-1.45-.25,2.8,2.8,0,0,0-1.9.62,1.87,1.87,0,0,0-.71,1.41,1.66,1.66,0,0,0,.44,1.16,2.62,2.62,0,0,0,1.44.65l2.56.48a7.81,7.81,0,0,1,2.39.79,6.35,6.35,0,0,1,1.72,1.29,5,5,0,0,1,1,1.67,5.24,5.24,0,0,1,.35,1.93,5.42,5.42,0,0,1-.46,2.19A5.56,5.56,0,0,1,127,34.26a7,7,0,0,1-2.22,1.36,8.14,8.14,0,0,1-3,.52,9.19,9.19,0,0,1-3.41-.57A7.5,7.5,0,0,1,116,34.11a6,6,0,0,1-1.43-1.94,6.88,6.88,0,0,1-.59-2.09l3.9-.93a4.11,4.11,0,0,0,.31,1.24,3,3,0,0,0,.74,1,3.59,3.59,0,0,0,1.21.71,4.89,4.89,0,0,0,1.7.27,3.18,3.18,0,0,0,2-.55,1.72,1.72,0,0,0,.72-1.43,1.58,1.58,0,0,0-.55-1.21,3.07,3.07,0,0,0-1.5-.68l-2.61-.48A6.76,6.76,0,0,1,116,26.11a5.17,5.17,0,0,1-1.37-3.6,5.48,5.48,0,0,1,.55-2.46,6,6,0,0,1,1.49-1.92,7.45,7.45,0,0,1,2.18-1.26,7.62,7.62,0,0,1,2.61-.45,8.54,8.54,0,0,1,3,.48,6.59,6.59,0,0,1,2.09,1.22,5.16,5.16,0,0,1,1.25,1.62,7.17,7.17,0,0,1,.59,1.72Z" transform="translate(-3.68 -3.68)"/><polygon class="cls-1" points="128.41 32.06 128.41 13.14 140.49 13.14 140.49 17.12 132.66 17.12 132.66 20.72 139.77 20.72 139.77 24.43 132.66 24.43 132.66 28.06 140.52 28.06 140.52 32.06 128.41 32.06"/><polygon class="cls-1" points="161.9 32.06 161.9 19.52 156.92 32.06 153.48 32.06 148.5 19.68 148.5 32.06 144.47 32.06 144.47 13.14 150.01 13.14 155.25 25.92 160.23 13.14 166.07 13.14 166.07 32.06 161.9 32.06"/><path class="cls-1" d="M185.68,31.9H178.3l-1.37,3.84h-4.46l7.18-18.92h4.92l7.11,18.92h-4.63Zm-6-3.84h4.63L182,21.52Z" transform="translate(-3.68 -3.68)"/><path class="cls-1" d="M200.14,28.7h-1.5v7h-4.25V16.82H202a6.88,6.88,0,0,1,2.54.45,6,6,0,0,1,1.95,1.26,5.63,5.63,0,0,1,1.25,1.88,6,6,0,0,1,.44,2.34,5.62,5.62,0,0,1-1,3.32,5.55,5.55,0,0,1-2.77,2l3.87,7.66h-4.68Zm1-3.63a2.84,2.84,0,0,0,2-.64,2.17,2.17,0,0,0,.69-1.66,2.14,2.14,0,0,0-.69-1.68,2.88,2.88,0,0,0-2-.61h-2.5v4.59Z" transform="translate(-3.68 -3.68)"/><rect class="cls-1" x="207.97" y="13.14" width="4.3" height="18.92"/><path class="cls-1" d="M231.85,31.9h-7.37l-1.38,3.84h-4.46l7.18-18.92h4.92l7.11,18.92h-4.63Zm-6-3.84h4.63l-2.29-6.54Z" transform="translate(-3.68 -3.68)"/><path class="cls-2" d="M132.1,56V54.35h1.12v-7H132.1V45.71h3.41v8.64h1V56Z" transform="translate(-3.68 -3.68)"/><path class="cls-2" d="M146,54.35V56h-3.44v-.61a3.62,3.62,0,0,1-2.09.72,2,2,0,0,1-2.21-2.22v-3.4H137.2V48.84h3.35V53.3a1.17,1.17,0,0,0,.16.73.75.75,0,0,0,.59.2,2.19,2.19,0,0,0,1.27-.51V50.49h-1.1V48.84h3.39v5.51Z" transform="translate(-3.68 -3.68)"/><path class="cls-2" d="M146.92,50.49V48.84h3.38v.67a3.47,3.47,0,0,1,2.1-.78c1.45,0,2.17.92,2.17,2.77v2.85h1.08V56h-3.37V51.67a1.49,1.49,0,0,0-.15-.8.63.63,0,0,0-.53-.22,2.31,2.31,0,0,0-1.3.47v3.23h1.1V56h-4.48V54.35H148V50.49Z" transform="translate(-3.68 -3.68)"/><path class="cls-2" d="M165.06,54.35V56h-3.47v-.85a2.86,2.86,0,0,1-2.07,1A2.74,2.74,0,0,1,157.3,55a4.36,4.36,0,0,1,0-5.28,2.79,2.79,0,0,1,2.21-1.08,2.57,2.57,0,0,1,2.06,1V47.36h-1.11V45.71h3.4v8.64Zm-3.44-1.94a2,2,0,0,0-.44-1.47,1.4,1.4,0,0,0-1-.43,1.19,1.19,0,0,0-1,.52,2.36,2.36,0,0,0-.36,1.37,2.44,2.44,0,0,0,.36,1.36,1.17,1.17,0,0,0,1.05.55,1.35,1.35,0,0,0,1-.45A2,2,0,0,0,161.62,52.41Z" transform="translate(-3.68 -3.68)"/><path class="cls-2" d="M166,50.49V48.84h3.37v5.51h1.07V56H166V54.35h1.09V50.49Zm1-3.7a1.25,1.25,0,0,1,1.25-1.26,1.26,1.26,0,0,1,1.25,1.26,1.24,1.24,0,0,1-2.13.88A1.19,1.19,0,0,1,167,46.79Z" transform="translate(-3.68 -3.68)"/><path class="cls-2" d="M171.23,50.49V48.84h3.38v.67a3.47,3.47,0,0,1,2.1-.78c1.45,0,2.17.92,2.17,2.77v2.85H180V56h-3.37V51.67a1.39,1.39,0,0,0-.16-.8.61.61,0,0,0-.52-.22,2.28,2.28,0,0,0-1.3.47v3.23h1.1V56h-4.48V54.35h1.09V50.49Z" transform="translate(-3.68 -3.68)"/><path class="cls-2" d="M184.38,50.49V48.84h3.47v.59a4.49,4.49,0,0,1,2.33-.7,2.55,2.55,0,0,1,2.14,1,5,5,0,0,1,2.9-1,2.83,2.83,0,0,1,1.45.33,1.73,1.73,0,0,1,.77.88,5.09,5.09,0,0,1,.2,1.68v2.73h1.19V56h-3.47V51.81c0-.75-.33-1.13-1-1.13a3.51,3.51,0,0,0-1.65.49v3.18h1.18V56h-3.47V51.88q0-1.2-.93-1.2a3.82,3.82,0,0,0-1.67.49v3.18H189V56h-4.66V54.35h1.19V50.49Z" transform="translate(-3.68 -3.68)"/><path class="cls-2" d="M199.59,50.49V48.84H203v5.51H204V56h-4.44V54.35h1.09V50.49Zm1-3.7a1.25,1.25,0,1,1,2.5,0,1.18,1.18,0,0,1-.37.88,1.23,1.23,0,0,1-1.76,0A1.19,1.19,0,0,1,200.6,46.79Z" transform="translate(-3.68 -3.68)"/><path class="cls-2" d="M204.86,50.49V48.84h3.38v.67a3.47,3.47,0,0,1,2.1-.78c1.45,0,2.17.92,2.17,2.77v2.85h1.08V56h-3.37V51.67a1.49,1.49,0,0,0-.15-.8.63.63,0,0,0-.53-.22,2.31,2.31,0,0,0-1.3.47v3.23h1.1V56h-4.48V54.35H206V50.49Z" transform="translate(-3.68 -3.68)"/><path class="cls-2" d="M214.43,50.49V48.84h3.37v5.51h1.07V56h-4.44V54.35h1.09V50.49Zm1-3.7a1.24,1.24,0,0,1,.37-.89,1.24,1.24,0,0,1,1.77,0,1.24,1.24,0,0,1,.37.89,1.22,1.22,0,0,1-.37.88,1.26,1.26,0,0,1-2.14-.88Z" transform="translate(-3.68 -3.68)"/><path class="cls-2" d="M219.7,50.49V48.84h3.38v.67a3.47,3.47,0,0,1,2.1-.78c1.44,0,2.17.92,2.17,2.77v2.85h1.08V56h-3.37V51.67a1.39,1.39,0,0,0-.16-.8.61.61,0,0,0-.52-.22,2.28,2.28,0,0,0-1.3.47v3.23h1.1V56H219.7V54.35h1.09V50.49Z" transform="translate(-3.68 -3.68)"/><path class="cls-2" d="M237.85,48.84v1.65h-1.19v5.3c0,2.36-1.24,3.54-3.74,3.54a5.37,5.37,0,0,1-3.2-.77L230.83,57a3.26,3.26,0,0,0,1.74.53,2.05,2.05,0,0,0,1.28-.39,1.81,1.81,0,0,0,.53-1.52v-.55a3.32,3.32,0,0,1-2.18,1,2.7,2.7,0,0,1-2.12-1,4,4,0,0,1-.88-2.65,3.92,3.92,0,0,1,.91-2.66,2.8,2.8,0,0,1,2.2-1,2.57,2.57,0,0,1,2.07,1v-.88Zm-3.47,3.61a2.17,2.17,0,0,0-.38-1.37,1.25,1.25,0,0,0-1.05-.51,1.19,1.19,0,0,0-1,.52,2.29,2.29,0,0,0-.36,1.33,2.18,2.18,0,0,0,.37,1.33,1.21,1.21,0,0,0,1,.52,1.31,1.31,0,0,0,1-.48A2,2,0,0,0,234.38,52.45Z" transform="translate(-3.68 -3.68)"/><path class="cls-3" d="M56.66,17.11,38.49,6.47a9.51,9.51,0,0,0-9.39-.1L10,17a9.49,9.49,0,0,0-4.86,8.27V35.33H6.5c.44,0,.9,0,1.39,0L21.6,21.54a4.67,4.67,0,0,1,6.58,0l8.46,8.36,9.25-9.17a4.18,4.18,0,0,1,5.89,0l7.6,7.6c.43,0,.86,0,1.3,0h.66v-3A9.51,9.51,0,0,0,56.66,17.11Z" transform="translate(-3.68 -3.68)"/><path class="cls-4" d="M44.61,46.89c-7.09-.13-14.78-2.26-23.51-6.5-7.51-3.64-12.18-3.6-15.59-3.57H5.18V49.47a5,5,0,0,0,5,5H56.32a5,5,0,0,0,5-5V39.83A22.12,22.12,0,0,1,45,46.89Z" transform="translate(-3.68 -3.68)"/><path class="cls-4" d="M22.67,22.6,9.88,35.46a30.35,30.35,0,0,1,7.39,1.7A42.62,42.62,0,0,1,21.58,39c.37,0,.67,0,1,0C26.9,38.63,33,37.09,39.39,34.7L27.13,22.58A3.17,3.17,0,0,0,22.67,22.6Z" transform="translate(-3.68 -3.68)"/><path class="cls-5" d="M45.75,32c6.17-2.85,9.25-3.47,11.58-3.66l-6.61-6.61a2.68,2.68,0,0,0-3.77,0l-9.24,9.17,3.22,3.18C42.58,33.45,44.2,32.76,45.75,32Z" transform="translate(-3.68 -3.68)"/><path class="cls-5" d="M46.38,33.4A82,82,0,0,1,25,40.16l-.65.09c7.47,3.34,14.11,5,20.29,5.14a21,21,0,0,0,15.24-6.2,19.72,19.72,0,0,0,1.46-1.74V29.83h-.65C57,29.76,54.33,29.72,46.38,33.4Z" transform="translate(-3.68 -3.68)"/><path class="cls-6" d="M57.41,15.82,39.25,5.18a11,11,0,0,0-10.88-.12L9.31,15.67a11,11,0,0,0-5.63,9.58V49.47A6.53,6.53,0,0,0,10.2,56H56.32a6.53,6.53,0,0,0,6.52-6.52V25.28A11,11,0,0,0,57.41,15.82ZM5.18,25.25A9.49,9.49,0,0,1,10,17L29.1,6.37a9.51,9.51,0,0,1,9.39.1L56.66,17.11a9.51,9.51,0,0,1,4.68,8.17v3h-.66c-.44,0-.87,0-1.3,0l-7.6-7.6a4.18,4.18,0,0,0-5.89,0l-9.25,9.17-8.46-8.36a4.67,4.67,0,0,0-6.58,0L7.89,35.34c-.49,0-.95,0-1.39,0H5.18ZM61.34,49.47a5,5,0,0,1-5,5H10.2a5,5,0,0,1-5-5V36.82h.33c3.41,0,8.08-.07,15.59,3.57,8.73,4.24,16.42,6.37,23.51,6.5H45a22.12,22.12,0,0,0,16.38-7.06Zm-16.7-4.08c-6.18-.12-12.82-1.8-20.29-5.14l.65-.09A82,82,0,0,0,46.38,33.4c7.95-3.68,10.62-3.64,14.31-3.58h.65v7.62a19.72,19.72,0,0,1-1.46,1.74A21,21,0,0,1,44.64,45.39ZM45.75,32c-1.55.72-3.17,1.41-4.82,2.07l-3.22-3.18L47,21.76a2.68,2.68,0,0,1,3.77,0l6.61,6.61C55,28.57,51.92,29.19,45.75,32ZM39.39,34.7C33,37.09,26.9,38.63,22.55,38.92c-.3,0-.6,0-1,0a42.62,42.62,0,0,0-4.31-1.8,30.35,30.35,0,0,0-7.39-1.7L22.67,22.6a3.17,3.17,0,0,1,4.46,0Z" transform="translate(-3.68 -3.68)"/></svg>