<?xml version="1.0" encoding="utf-8"?>
<!-- Generator: Adobe Illustrator 15.1.0, SVG Export Plug-In . SVG Version: 6.00 Build 0)  -->
<!DOCTYPE svg PUBLIC "-//W3C//DTD SVG 1.1//EN" "http://www.w3.org/Graphics/SVG/1.1/DTD/svg11.dtd">
<svg version="1.1" id="Capa_1" xmlns="http://www.w3.org/2000/svg" xmlns:xlink="http://www.w3.org/1999/xlink" x="0px" y="0px"
	 width="222px" height="77px" viewBox="0 0 222 77" enable-background="new 0 0 222 77" xml:space="preserve">
<g>
	<path fill="#F86F2F" d="M210.555,47.644h-13.378h-4.667h-0.027h-1.367c-0.354,0-0.646-0.117-0.844-0.341
		c-0.201-0.227-0.286-0.552-0.242-0.915l3.188-25.961h-0.002c0.001-0.12-0.021-0.219-0.068-0.297s-0.122-0.135-0.226-0.173
		s-0.236-0.056-0.402-0.056h-0.799h-0.8h-0.752c-0.165,0-0.309,0.018-0.433,0.056c-0.123,0.038-0.229,0.095-0.319,0.173
		s-0.165,0.177-0.229,0.297l0,0l-0.001,0.003c-0.063,0.12-0.113,0.263-0.157,0.427l-1.546,5.77l-1.548,5.771l-0.254,0.948
		c-0.001,0.005-0.003,0.007-0.004,0.011l-3.093,11.541l-1.96,7.313c-3.836-4.467-5.768-4.566-14.669-4.566h-5.341h-1.396
		c-0.354,0-0.646-0.117-0.843-0.341c-0.201-0.227-0.287-0.552-0.242-0.915l3.188-25.961h-0.002c0.002-0.12-0.021-0.219-0.068-0.297
		s-0.122-0.135-0.226-0.173s-0.236-0.056-0.403-0.056h-0.798h-0.8h-0.752c-0.165,0-0.309,0.018-0.433,0.056
		s-0.229,0.095-0.319,0.173s-0.165,0.177-0.229,0.297h-0.002v0.003c-0.062,0.12-0.112,0.263-0.155,0.427l-1.547,5.77l-1.548,5.771
		l-0.254,0.948c-0.001,0.005-0.003,0.007-0.004,0.011l-3.093,11.541l-1.96,7.313c-3.836-4.466-5.771-4.566-14.669-4.566h-111.8
		h-1.648H9.153c-0.661,0-0.839,0.221-0.918,0.847l-0.272,2.233c-0.083,0.678,0.258,0.92,0.92,0.92h11.73h1.648h111.797l0,0
		c4.828,0,7.219-0.009,8.731,0.629c1.401,0.592,2.495,1.932,4.806,4.887c0,0.002,0,0.004,0.001,0.005
		c0.097,0.157,0.298,0.229,0.628,0.229h1.176h1.176c0.33,0,0.57-0.072,0.75-0.229c0.18-0.155,0.299-0.396,0.388-0.726l2.462-9.186
		c0.131,1.006,0.541,1.949,1.206,2.701c0.964,1.09,2.327,1.689,3.838,1.689h1.396l0,0h5.341l0,0c4.828,0,7.216-0.009,8.729,0.629
		c1.401,0.592,2.495,1.932,4.806,4.887c0,0.002,0,0.004,0.001,0.005c0.096,0.157,0.298,0.229,0.628,0.229h1.176h1.175
		c0.331,0,0.571-0.072,0.751-0.229c0.18-0.155,0.299-0.396,0.388-0.726l2.462-9.186c0.131,1.006,0.541,1.949,1.205,2.701
		c0.965,1.09,2.328,1.689,3.84,1.689h1.395l0,0h4.667h13.107c0.661,0,0.839-0.22,0.918-0.846l0.272-2.234
		C211.558,47.887,211.217,47.644,210.555,47.644z"/>
	<g>
		<path fill="#5C747C" d="M209.088,26.259c0.035-0.294,0.035-0.258,0.035-0.367c0-1.543-1.138-2.315-3.343-2.315
			c-2.353,0-3.676,0.882-3.859,2.683l-0.037,0.367c-0.037,0.331-0.037,0.441-0.037,0.589c0,0.992,0.662,1.323,1.25,1.544
			l6.064,2.278c2.426,0.919,3.786,2.573,3.786,4.778c0,0.184-0.037,0.551-0.074,0.882l-0.257,2.5
			c-0.331,3.087-2.609,5.991-9.336,5.991c-5.991,0-8.27-2.537-8.27-5.366c0-0.147,0-0.404,0.073-0.883l0.258-2.058
			c0.072-0.662,0.367-0.956,0.992-0.956h3.087c0.661,0,0.846,0.331,0.772,0.956l-0.185,1.396c-0.036,0.294-0.036,0.514-0.036,0.697
			c0,1.545,1.286,2.243,3.639,2.243c2.462,0,3.896-0.845,4.153-2.683l0.146-1.03c0.037-0.258,0.037-0.44,0.037-0.515
			c0-1.213-1.47-1.838-2.793-2.352l-5.109-2.021c-1.839-0.735-3.161-2.315-3.161-4.301c0-0.184,0.037-0.515,0.074-0.883l0.22-1.837
			c0.368-3.087,2.278-5.991,8.932-5.991c5.918,0,7.939,2.535,7.939,5.256c0,0.184,0,0.331-0.037,0.735l-0.146,1.507
			c-0.075,0.625-0.404,0.919-1.029,0.919h-3.089c-0.587,0-0.844-0.221-0.771-0.919L209.088,26.259z"/>
		<path fill="#5C747C" d="M177.193,26.259c0.036-0.294,0.036-0.258,0.036-0.367c0-1.543-1.139-2.315-3.344-2.315
			c-2.353,0-3.676,0.882-3.859,2.683l-0.037,0.367c-0.037,0.331-0.037,0.441-0.037,0.589c0,0.992,0.662,1.323,1.25,1.544
			l6.064,2.278c2.426,0.919,3.786,2.573,3.786,4.778c0,0.184-0.037,0.551-0.073,0.882l-0.258,2.5
			c-0.331,3.087-2.609,5.991-9.336,5.991c-5.991,0-8.27-2.537-8.27-5.366c0-0.147,0-0.404,0.073-0.883l0.258-2.058
			c0.073-0.662,0.367-0.956,0.992-0.956h3.087c0.661,0,0.846,0.331,0.772,0.956l-0.185,1.396c-0.036,0.294-0.036,0.514-0.036,0.697
			c0,1.545,1.286,2.243,3.639,2.243c2.463,0,3.896-0.845,4.153-2.683l0.147-1.03c0.036-0.258,0.036-0.44,0.036-0.515
			c0-1.213-1.47-1.838-2.793-2.352l-5.109-2.021c-1.838-0.735-3.161-2.315-3.161-4.301c0-0.184,0.037-0.515,0.074-0.883l0.221-1.837
			c0.367-3.087,2.278-5.991,8.931-5.991c5.918,0,7.939,2.535,7.939,5.256c0,0.184,0,0.331-0.037,0.735l-0.146,1.507
			c-0.074,0.625-0.404,0.919-1.029,0.919h-3.088c-0.588,0-0.846-0.221-0.772-0.919L177.193,26.259z"/>
		<path fill="#5C747C" d="M31.091,43.976c-0.073,0.624-0.294,0.918-0.955,0.918h-3.051c-0.662,0-0.883-0.294-0.809-0.918
			l1.728-14.005c-0.515,1.36-1.066,2.647-1.47,3.382l-3.603,6.837c-0.331,0.588-0.735,0.919-1.36,0.919h-2.462
			c-0.736,0-0.993-0.368-1.176-0.919l-2.243-7.388c-0.184-0.625-0.367-1.617-0.515-2.757l-1.728,13.931
			c-0.073,0.624-0.294,0.918-0.955,0.918H9.59c-0.662,0-0.883-0.294-0.81-0.918l2.83-23.156c0.074-0.625,0.368-0.919,1.029-0.919
			h2.867c0.441,0,0.625,0.184,0.735,0.515l4.043,12.828c0.258,0.809,0.441,1.653,0.625,2.572c0.331-0.809,0.771-1.728,1.213-2.535
			l7.057-12.938c0.184-0.331,0.441-0.441,0.883-0.441h3.124c0.661,0,0.809,0.294,0.734,0.919L31.091,43.976z"/>
		<path fill="#5C747C" d="M36.24,44.894c-0.625,0-0.883-0.294-0.81-0.955l2.868-23.082c0.073-0.662,0.367-0.956,0.992-0.956h12.57
			c0.661,0,0.919,0.221,0.845,0.882l-0.294,2.315c-0.073,0.662-0.404,0.919-1.029,0.919h-8.49l-0.735,5.954h7.902
			c0.625,0,0.846,0.221,0.772,0.882l-0.258,2.207c-0.073,0.624-0.367,0.882-1.029,0.882H41.68l-0.882,6.836h8.895
			c0.661,0,0.956,0.22,0.845,0.882l-0.33,2.316c-0.11,0.662-0.331,0.918-0.992,0.918H36.24z"/>
		<path fill="#5C747C" d="M70.938,39.196c-0.33,3.088-2.426,5.992-9.225,5.992c-5.992,0-8.087-2.5-8.087-5.293
			c0-0.258,0.037-0.588,0.073-0.955l1.617-13.343c0.368-3.089,2.426-5.991,9.226-5.991c5.955,0,8.087,2.462,8.087,5.256
			c0,0.258-0.037,0.588-0.074,0.955l-0.184,1.545c-0.073,0.661-0.331,0.918-0.956,0.918h-3.087c-0.661,0-0.846-0.33-0.771-0.918
			l0.11-0.698c0.036-0.295,0.036-0.552,0.036-0.699c0-1.471-1.176-2.242-3.456-2.242c-2.461,0-3.821,0.919-4.042,2.757
			l-1.434,11.578c-0.036,0.293-0.073,0.551-0.073,0.697c0,1.545,1.213,2.316,3.455,2.316c2.463,0,3.896-0.918,4.08-2.757
			l0.146-1.396c0.074-0.662,0.367-0.92,1.029-0.92h3.051c0.698,0,0.809,0.367,0.735,0.92L70.938,39.196z"/>
		<path fill="#5C747C" d="M85.79,19.9c0.624,0,0.882,0.294,0.992,0.919l4.043,23.156c0.11,0.588-0.11,0.918-0.771,0.918h-3.235
			c-0.661,0-0.882-0.33-0.991-0.918l-0.735-4.484h-6.837l-1.839,4.484c-0.22,0.588-0.514,0.918-1.175,0.918H72.19
			c-0.625,0-0.846-0.33-0.588-0.918l9.703-23.156c0.258-0.625,0.625-0.919,1.25-0.919H85.79z M83.805,31.479
			c-0.33-1.911-0.294-6.728-0.294-6.728c-0.036,0.148-1.212,5.073-1.911,6.69l-1.764,4.116h4.667L83.805,31.479z"/>
		<path fill="#5C747C" d="M110.934,43.976c-0.074,0.624-0.295,0.918-0.956,0.918h-2.757c-0.515,0-0.698-0.146-0.846-0.44
			l-5.623-12.167c-0.404-0.918-0.882-2.205-1.103-3.014l-1.801,14.703c-0.074,0.624-0.295,0.918-0.956,0.918h-2.903
			c-0.662,0-0.883-0.294-0.81-0.918l2.83-23.156c0.074-0.625,0.368-0.919,1.029-0.919h2.757c0.441,0,0.661,0.11,0.772,0.366
			l5.844,12.683c0.331,0.734,0.771,1.911,0.919,2.573l1.801-14.703c0.073-0.625,0.366-0.919,0.991-0.919h2.905
			c0.661,0,0.845,0.294,0.771,0.919L110.934,43.976z"/>
		<path fill="#5C747C" d="M127.549,19.9c0.625,0,0.883,0.294,0.992,0.919l4.043,23.156c0.111,0.588-0.109,0.918-0.771,0.918h-3.234
			c-0.662,0-0.882-0.33-0.992-0.918l-0.735-4.484h-6.836l-1.838,4.484c-0.221,0.588-0.515,0.918-1.176,0.918h-3.051
			c-0.625,0-0.846-0.33-0.589-0.918l9.703-23.156c0.258-0.625,0.626-0.919,1.25-0.919H127.549z M125.564,31.479
			c-0.331-1.911-0.294-6.728-0.294-6.728c-0.037,0.148-1.213,5.073-1.911,6.69l-1.765,4.116h4.668L125.564,31.479z"/>
		<path fill="#5C747C" d="M140.306,40.777h8.196c0.625,0,0.955,0.22,0.846,0.882l-0.331,2.316c-0.109,0.662-0.33,0.918-0.992,0.918
			h-12.387c-0.552,0-0.772-0.33-0.698-0.955l2.867-23.082c0.073-0.662,0.367-0.956,0.992-0.956h3.197
			c0.662,0,0.846,0.294,0.772,0.956L140.306,40.777z"/>
	</g>
</g>
</svg>
